<?xml version="1.0" encoding="UTF-8" standalone="no"?>
<svg width="430px" height="140px" viewBox="0 0 430 140" version="1.1" xmlns="http://www.w3.org/2000/svg" xmlns:xlink="http://www.w3.org/1999/xlink" xmlns:sketch="http://www.bohemiancoding.com/sketch/ns">
    <!-- Generator: Sketch 3.3.3 (12072) - http://www.bohemiancoding.com/sketch -->
    <title>home3</title>
    <desc>Created with Sketch.</desc>
    <defs></defs>
    <g id="Branding" stroke="none" stroke-width="1" fill="none" fill-rule="evenodd" sketch:type="MSPage">
        <g id="home3" sketch:type="MSArtboardGroup">
            <g id="81---Chat-(Flat)" sketch:type="MSLayerGroup" transform="translate(30.000000, 49.000000)" fill="#32D1AC">
                <path d="M48,4.929 L48,26.071 C48,28.793 45.793,31 43.071,31 L22,31 L12,42 L12,31 L4.929,31 C2.207,31 0,28.793 0,26.071 L0,4.929 C0,2.207 2.207,0 4.929,0 L43.071,0 C45.793,0 48,2.207 48,4.929" id="Fill-368" sketch:type="MSShapeGroup"></path>
            </g>
            <g id="81---Chat-(Flat)-Copy" sketch:type="MSLayerGroup" transform="translate(376.000000, 70.000000) scale(-1, 1) translate(-376.000000, -70.000000) translate(352.000000, 49.000000)" fill="#FFBE53">
                <path d="M48,4.929 L48,26.071 C48,28.793 45.793,31 43.071,31 L22,31 L12,42 L12,31 L4.929,31 C2.207,31 0,28.793 0,26.071 L0,4.929 C0,2.207 2.207,0 4.929,0 L43.071,0 C45.793,0 48,2.207 48,4.929" id="Fill-368" sketch:type="MSShapeGroup"></path>
            </g>
            <g id="28---PDF-File-(Flat)" sketch:type="MSLayerGroup" transform="translate(193.000000, 29.000000)">
                <path d="M30.485,0 L1.463,0 C0.655,0 0,0.655 0,1.926 L0,55 C0,55.345 0.655,56 1.463,56 L41.537,56 C42.345,56 43,55.345 43,55 L43,12.978 C43,12.282 42.907,12.058 42.743,11.893 L31.107,0.257 C30.942,0.093 30.718,0 30.485,0" id="Fill-100" fill="#E9E9E0" sketch:type="MSShapeGroup"></path>
                <path d="M31,0.151 L31,12 L42.849,12 L31,0.151" id="Fill-101" fill="#D9D7CA" sketch:type="MSShapeGroup"></path>
                <path d="M13.014,43.324 L13.014,43.324 C12.666,43.324 12.332,43.211 12.047,42.998 C11.006,42.216 10.866,41.347 10.932,40.755 C11.114,39.128 13.127,37.423 16.917,35.687 C18.421,32.391 19.852,28.33 20.705,24.937 C19.707,22.764 18.738,19.947 19.444,18.293 C19.692,17.715 20.002,17.27 20.578,17.078 C20.807,17.002 21.382,16.906 21.594,16.906 C22.098,16.906 22.541,17.555 22.855,17.955 C23.15,18.332 23.819,19.129 22.482,24.758 C23.83,27.541 25.739,30.377 27.57,32.319 C28.881,32.082 30.009,31.961 30.928,31.961 C32.494,31.961 33.443,32.327 33.83,33.078 C34.15,33.7 34.018,34.427 33.439,35.238 C32.882,36.017 32.115,36.429 31.219,36.429 C30.003,36.429 28.587,35.661 27.008,34.144 C24.17,34.737 20.857,35.795 18.179,36.966 C17.343,38.74 16.542,40.169 15.796,41.217 C14.773,42.654 13.889,43.324 13.014,43.324 L13.014,43.324 Z M15.676,38.198 C13.538,39.399 12.667,40.386 12.605,40.942 C12.595,41.034 12.568,41.276 13.036,41.634 C13.185,41.587 14.055,41.19 15.676,38.198 L15.676,38.198 Z M29.313,33.756 C30.128,34.383 30.327,34.7 30.86,34.7 C31.094,34.7 31.762,34.69 32.07,34.259 C32.219,34.05 32.277,33.916 32.299,33.845 C32.177,33.779 32.014,33.648 31.124,33.648 C30.62,33.648 29.985,33.669 29.313,33.756 L29.313,33.756 Z M21.843,27.174 C21.127,29.648 20.183,32.319 19.169,34.738 C21.259,33.927 23.531,33.219 25.665,32.718 C24.315,31.15 22.966,29.192 21.843,27.174 L21.843,27.174 Z M21.236,18.712 C21.138,18.745 19.906,20.469 21.332,21.928 C22.281,19.813 21.279,18.698 21.236,18.712 L21.236,18.712 Z" id="Fill-102" fill="#CC4B4C" sketch:type="MSShapeGroup"></path>
            </g>
            <g id="27---PNG-File-(Flat)" sketch:type="MSLayerGroup" transform="translate(288.500000, 85.000000) rotate(-330.000000) translate(-288.500000, -85.000000) translate(267.000000, 57.000000)">
                <path d="M30.485,0 L1.463,0 C0.655,0 0,0.655 0,1.926 L0,55 C0,55.345 0.655,56 1.463,56 L41.537,56 C42.345,56 43,55.345 43,55 L43,12.978 C43,12.282 42.907,12.058 42.743,11.893 L31.107,0.257 C30.942,0.093 30.718,0 30.485,0" id="Fill-34" fill="#E9E9E0" sketch:type="MSShapeGroup"></path>
                <path d="M1.463,56 C0.655,56 0,55.345 0,54.537 L0,54 L43,54 L43,54.537 C43,55.345 42.345,56 41.537,56 L1.463,56 Z" id="Fill-103" fill="#659C35" sketch:type="MSShapeGroup"></path>
                <path d="M31,0.151 L31,12 L42.849,12 L31,0.151" id="Fill-104" fill="#D9D7CA" sketch:type="MSShapeGroup"></path>
                <path d="M17,24.431 C17,26.954 14.954,29 12.431,29 C9.908,29 7.862,26.954 7.862,24.431 C7.862,21.908 9.908,19.862 12.431,19.862 C14.954,19.862 17,21.908 17,24.431" id="Fill-108" fill="#F3D55B" sketch:type="MSShapeGroup"></path>
                <path d="M0,54 L43,54 L43,43 L33,33.5 L22.5,45 L17.017,39.517 L0,54" id="Fill-297" fill="#88C057" sketch:type="MSShapeGroup"></path>
            </g>
            <g id="19---XLS-File-(Flat)" sketch:type="MSLayerGroup" transform="translate(140.683013, 84.316987) rotate(-30.000000) translate(-140.683013, -84.316987) translate(118.683013, 55.816987)">
                <path d="M30.485,1 L1.463,1 C0.655,1 5.68434189e-14,1.655 5.68434189e-14,2.926 L5.68434189e-14,56 C5.68434189e-14,56.345 0.655,57 1.463,57 L41.537,57 C42.345,57 43,56.345 43,56 L43,13.978 C43,13.282 42.907,13.058 42.743,12.893 L31.107,1.257 C30.942,1.093 30.718,1 30.485,1" id="Fill-72" fill="#E9E9E0" sketch:type="MSShapeGroup"></path>
                <path d="M31,1.151 L31,13 L42.849,13 L31,1.151" id="Fill-73" fill="#D9D7CA" sketch:type="MSShapeGroup"></path>
                <path d="M16.9641016,25.0621778 L16.9641016,21.0621778 L4.96410162,21.0621778 L4.96410162,43.0621778 L37.9641016,43.0621778 L37.9641016,25.0621778 L16.9641016,25.0621778 L16.9641016,25.0621778 Z M6.96410162,23.0621778 L14.9641016,23.0621778 L14.9641016,25.0621778 L6.96410162,25.0621778 L6.96410162,23.0621778 Z M6.96410162,27.0621778 L14.9641016,27.0621778 L14.9641016,29.0621778 L6.96410162,29.0621778 L6.96410162,27.0621778 Z M6.96410162,31.0621778 L14.9641016,31.0621778 L14.9641016,33.0621778 L6.96410162,33.0621778 L6.96410162,31.0621778 Z M6.96410162,35.0621778 L14.9641016,35.0621778 L14.9641016,37.0621778 L6.96410162,37.0621778 L6.96410162,35.0621778 Z M6.96410162,39.0621778 L14.9641016,39.0621778 L14.9641016,41.0621778 L6.96410162,41.0621778 L6.96410162,39.0621778 Z M16.9641016,39.0621778 L35.9641016,39.0621778 L35.9641016,41.0621778 L16.9641016,41.0621778 L16.9641016,39.0621778 Z M16.9641016,35.0621778 L35.9641016,35.0621778 L35.9641016,37.0621778 L16.9641016,37.0621778 L16.9641016,35.0621778 Z M16.9641016,31.0621778 L35.9641016,31.0621778 L35.9641016,33.0621778 L16.9641016,33.0621778 L16.9641016,31.0621778 Z M16.9641016,27.0621778 L35.9641016,27.0621778 L35.9641016,29.0621778 L16.9641016,29.0621778 L16.9641016,27.0621778 Z" id="Fill-163" fill="#C8BDB8" sketch:type="MSShapeGroup"></path>
            </g>
            <path d="M310.123288,22.4324324 L319,22.4324324 M310.123288,29.2432432 L319,29.2432432 M310.123288,36.0540541 L319,36.0540541 M306.636219,20 L303.254685,23.8918919 L301,22.2237297 M306.636219,26.8108108 L303.254685,30.7027027 L301,29.035027 M306.636219,34.1081081 L303.254685,38 L301,36.3318378" id="Stroke-1748" stroke="#32D1AC" stroke-width="0.98630137" stroke-linecap="round" stroke-linejoin="round" sketch:type="MSShapeGroup" transform="translate(310.000000, 29.000000) rotate(-345.000000) translate(-310.000000, -29.000000) "></path>
        </g>
    </g>
</svg>