<?xml version="1.0" encoding="UTF-8" standalone="no"?>
<svg width="430px" height="140px" viewBox="0 0 430 140" version="1.1" xmlns="http://www.w3.org/2000/svg" xmlns:xlink="http://www.w3.org/1999/xlink" xmlns:sketch="http://www.bohemiancoding.com/sketch/ns">
    <!-- Generator: Sketch 3.3.3 (12072) - http://www.bohemiancoding.com/sketch -->
    <title>home2</title>
    <desc>Created with Sketch.</desc>
    <defs></defs>
    <g id="Branding" stroke="none" stroke-width="1" fill="none" fill-rule="evenodd" sketch:type="MSPage">
        <g id="home2" sketch:type="MSArtboardGroup">
            <g id="180---Nerd-(Flat)" sketch:type="MSLayerGroup" transform="translate(187.000000, 0.000000)">
                <path d="M60,30 C60,46.5685714 46.5685714,60 30,60 C13.4314286,60 0,46.5685714 0,30 C0,13.4314286 13.4314286,0 30,0 C46.5685714,0 60,13.4314286 60,30" id="Fill-35" fill="#FBD971" sketch:type="MSShapeGroup"></path>
                <path d="M18.5714286,47.0471429 C28.3271429,51.1114286 40.2214286,46.8028571 44.2857143,37.0471429" id="Stroke-214" stroke="#F0C419" stroke-width="2.85714286" stroke-linecap="round" stroke-linejoin="round" sketch:type="MSShapeGroup"></path>
                <path d="M21.4285714,30 L12.8571429,30 C9.71428571,30 7.14285714,27.4285714 7.14285714,24.2857143 L7.14285714,18.5714286 C7.14285714,15.4285714 9.71428571,12.8571429 12.8571429,12.8571429 L21.4285714,12.8571429 C24.5714286,12.8571429 27.1428571,15.4285714 27.1428571,18.5714286 L27.1428571,24.2857143 C27.1428571,27.4285714 24.5714286,30 21.4285714,30 L21.4285714,30 Z" id="Fill-215" fill="#D0E8F9" sketch:type="MSShapeGroup"></path>
                <path d="M21.4285714,30 L12.8571429,30 C9.71428571,30 7.14285714,27.4285714 7.14285714,24.2857143 L7.14285714,18.5714286 C7.14285714,15.4285714 9.71428571,12.8571429 12.8571429,12.8571429 L21.4285714,12.8571429 C24.5714286,12.8571429 27.1428571,15.4285714 27.1428571,18.5714286 L27.1428571,24.2857143 C27.1428571,27.4285714 24.5714286,30 21.4285714,30 L21.4285714,30 Z" id="Stroke-216" stroke="#556080" stroke-width="2.85714286" sketch:type="MSShapeGroup"></path>
                <path d="M27.1428571,20 L32.8571429,20 L32.8571429,22.8571429 L27.1428571,22.8571429 L27.1428571,20 Z" id="Fill-217" fill="#556080" sketch:type="MSShapeGroup"></path>
                <path d="M21.4285714,21.4285714 C21.4285714,23.7957143 19.51,25.7142857 17.1428571,25.7142857 C14.7757143,25.7142857 12.8571429,23.7957143 12.8571429,21.4285714 C12.8571429,19.0614286 14.7757143,17.1428571 17.1428571,17.1428571 C19.51,17.1428571 21.4285714,19.0614286 21.4285714,21.4285714" id="Fill-322" fill="#556080" sketch:type="MSShapeGroup"></path>
                <path d="M47.1428571,30 L38.5714286,30 C35.4285714,30 32.8571429,27.4285714 32.8571429,24.2857143 L32.8571429,18.5714286 C32.8571429,15.4285714 35.4285714,12.8571429 38.5714286,12.8571429 L47.1428571,12.8571429 C50.2857143,12.8571429 52.8571429,15.4285714 52.8571429,18.5714286 L52.8571429,24.2857143 C52.8571429,27.4285714 50.2857143,30 47.1428571,30 L47.1428571,30 Z" id="Fill-323" fill="#D0E8F9" sketch:type="MSShapeGroup"></path>
                <path d="M47.1428571,30 L38.5714286,30 C35.4285714,30 32.8571429,27.4285714 32.8571429,24.2857143 L32.8571429,18.5714286 C32.8571429,15.4285714 35.4285714,12.8571429 38.5714286,12.8571429 L47.1428571,12.8571429 C50.2857143,12.8571429 52.8571429,15.4285714 52.8571429,18.5714286 L52.8571429,24.2857143 C52.8571429,27.4285714 50.2857143,30 47.1428571,30 L47.1428571,30 Z" id="Stroke-324" stroke="#556080" stroke-width="2.85714286" sketch:type="MSShapeGroup"></path>
                <path d="M47.1428571,21.4285714 C47.1428571,23.7957143 45.2242857,25.7142857 42.8571429,25.7142857 C40.49,25.7142857 38.5714286,23.7957143 38.5714286,21.4285714 C38.5714286,19.0614286 40.49,17.1428571 42.8571429,17.1428571 C45.2242857,17.1428571 47.1428571,19.0614286 47.1428571,21.4285714" id="Fill-341" fill="#556080" sketch:type="MSShapeGroup"></path>
                <path d="M6.17714286,23.91 L8.10857143,21.8042857 L2.95571429,17.08 C2.52,17.9914286 2.13,18.9257143 1.78571429,19.8842857 L6.17714286,23.91" id="Fill-369" fill="#556080" sketch:type="MSShapeGroup"></path>
                <path d="M56.9042857,16.79 L51.8471429,21.8471429 L53.8671429,23.8671429 L58.1171429,19.6185714 C57.7585714,18.65 57.3557143,17.7071429 56.9042857,16.79" id="Fill-370" fill="#556080" sketch:type="MSShapeGroup"></path>
            </g>
            <g id="216---Happy-(Flat)" sketch:type="MSLayerGroup" transform="translate(259.000000, 80.000000)">
                <path d="M60,30 C60,46.5685714 46.5685714,60 30,60 C13.4314286,60 0,46.5685714 0,30 C0,13.4314286 13.4314286,0 30,0 C46.5685714,0 60,13.4314286 60,30" id="Fill-70" fill="#FBD971" sketch:type="MSShapeGroup"></path>
                <path d="M45.7142857,34.2857143 C45.7142857,42.9642857 38.6785714,50 30,50 C21.3214286,50 14.2857143,42.9642857 14.2857143,34.2857143" id="Path" stroke="#F0C419" stroke-width="2.85714286" stroke-linecap="round" stroke-linejoin="round" sketch:type="MSShapeGroup"></path>
                <path d="M11.4285714,22.8571429 C11.4285714,19.7014286 13.9871429,17.1428571 17.1428571,17.1428571 C20.2985714,17.1428571 22.8571429,19.7014286 22.8571429,22.8571429" id="Path" stroke="#F29C1F" stroke-width="2.85714286" stroke-linecap="round" stroke-linejoin="round" sketch:type="MSShapeGroup"></path>
                <path d="M37.1428571,22.8571429 C37.1428571,19.7014286 39.7014286,17.1428571 42.8571429,17.1428571 C46.0128571,17.1428571 48.5714286,19.7014286 48.5714286,22.8571429" id="Path" stroke="#F29C1F" stroke-width="2.85714286" stroke-linecap="round" stroke-linejoin="round" sketch:type="MSShapeGroup"></path>
            </g>
            <g id="181---Smug-(Flat)" sketch:type="MSLayerGroup" transform="translate(113.000000, 85.000000)">
                <path d="M52.0552174,32.7380952 C33.6847826,34.6447619 32.1952174,20.0121429 32.1952174,15.7980952 C38.6908696,12.2335714 46.3017391,11.360119 53.3465217,13.1711905 C48.5321739,5.28130952 39.8908696,-4.61852778e-14 30,-4.61852778e-14 C20.1091304,-4.61852778e-14 11.4678261,5.28130952 6.65347826,13.1711905 C13.6969565,11.360119 21.3091304,12.2335714 27.8047826,15.7980952 C27.8047826,20.0121429 26.3152174,34.6447619 7.94478261,32.7380952 C5.54347826,32.4892857 3.8673913,31.1352381 2.6973913,29.2678571 C3.60913043,43.6280952 15.4669565,55 30,55 C44.5330435,55 56.3908696,43.6280952 57.3026087,29.2678571 C56.1326087,31.1352381 54.4565217,32.4892857 52.0552174,32.7380952" id="Fill-43" fill="#FBD971" sketch:type="MSShapeGroup"></path>
                <path d="M19.5652174,45.7455952 C28.4726087,49.4711905 39.3326087,45.5216667 43.0434783,36.5789286" id="Path" stroke="#F0C419" stroke-width="2.60869565" stroke-linecap="round" stroke-linejoin="round" sketch:type="MSShapeGroup"></path>
                <path d="M27.8047826,15.7980952 C27.8047826,20.0121429 26.3152174,34.6447619 7.94478261,32.7380952 C0.310434783,31.9458333 3.19744231e-14,20.0121429 3.19744231e-14,15.7980952 C8.61521739,11.0707143 19.1895652,11.0707143 27.8047826,15.7980952 L27.8047826,15.7980952 Z" id="Fill-268" fill="#556080" sketch:type="MSShapeGroup"></path>
                <path d="M27.8047826,15.7980952 C27.8047826,20.0121429 26.3152174,34.6447619 7.94478261,32.7380952 C0.310434783,31.9458333 3.19744231e-14,20.0121429 3.19744231e-14,15.7980952 C8.61521739,11.0707143 19.1895652,11.0707143 27.8047826,15.7980952 L27.8047826,15.7980952 Z" id="Stroke-269" stroke="#464F5D" stroke-width="2.60869565" sketch:type="MSShapeGroup"></path>
                <path d="M32.1952174,15.7980952 C32.1952174,20.0121429 33.6847826,34.6447619 52.0552174,32.7380952 C59.6895652,31.9458333 60,20.0121429 60,15.7980952 C51.3847826,11.0707143 40.8091304,11.0707143 32.1952174,15.7980952 L32.1952174,15.7980952 Z" id="Fill-270" fill="#556080" sketch:type="MSShapeGroup"></path>
                <path d="M32.1952174,15.7980952 C32.1952174,20.0121429 33.6847826,34.6447619 52.0552174,32.7380952 C59.6895652,31.9458333 60,20.0121429 60,15.7980952 C51.3847826,11.0707143 40.8091304,11.0707143 32.1952174,15.7980952 L32.1952174,15.7980952 Z" id="Stroke-271" stroke="#464F5D" stroke-width="2.60869565" sketch:type="MSShapeGroup"></path>
                <path d="M27.8047826,15.7142857 L32.1952174,15.7142857" id="Stroke-272" stroke="#464F5D" stroke-width="2.60869565" sketch:type="MSShapeGroup"></path>
                <path d="M5.85391304,20.4730952 L10.2443478,16.2577381 M11.7078261,23.2846429 L19.023913,16.2577381 M38.0491304,20.4730952 L42.4395652,16.2577381 M43.9017391,23.2846429 L51.2191304,16.2577381" id="Stroke-273" stroke="#8697CB" stroke-width="2.60869565" stroke-linecap="round" sketch:type="MSShapeGroup"></path>
            </g>
            <g id="190---Smiling-(Flat)" sketch:type="MSLayerGroup" transform="translate(361.000000, 20.000000)">
                <path d="M60,30 C60,46.5685714 46.5685714,60 30,60 C13.4314286,60 0,46.5685714 0,30 C0,13.4314286 13.4314286,0 30,0 C46.5685714,0 60,13.4314286 60,30" id="Fill-50" fill="#FBD971" sketch:type="MSShapeGroup"></path>
                <path d="M25.7142857,21.4285714 C25.7142857,26.1628571 21.8771429,30 17.1428571,30 C12.4085714,30 8.57142857,26.1628571 8.57142857,21.4285714 C8.57142857,16.6942857 12.4085714,12.8571429 17.1428571,12.8571429 C21.8771429,12.8571429 25.7142857,16.6942857 25.7142857,21.4285714" id="Fill-193" fill="#FFFFFF" sketch:type="MSShapeGroup"></path>
                <path d="M51.4285714,21.4285714 C51.4285714,26.1628571 47.5914286,30 42.8571429,30 C38.1228571,30 34.2857143,26.1628571 34.2857143,21.4285714 C34.2857143,16.6942857 38.1228571,12.8571429 42.8571429,12.8571429 C47.5914286,12.8571429 51.4285714,16.6942857 51.4285714,21.4285714" id="Fill-194" fill="#FFFFFF" sketch:type="MSShapeGroup"></path>
                <path d="M18.5714286,47.0471429 C28.3271429,51.1114286 40.2214286,46.8028571 44.2857143,37.0471429" id="Stroke-195" stroke="#F0C419" stroke-width="2.85714286" stroke-linecap="round" stroke-linejoin="round" sketch:type="MSShapeGroup"></path>
                <path d="M19.4285714,22.4285714 C19.4285714,24.7957143 17.51,26.7142857 15.1428571,26.7142857 C12.7757143,26.7142857 10.8571429,24.7957143 10.8571429,22.4285714 C10.8571429,20.0614286 12.7757143,18.1428571 15.1428571,18.1428571 C17.51,18.1428571 19.4285714,20.0614286 19.4285714,22.4285714" id="Fill-316" fill="#AF8066" sketch:type="MSShapeGroup"></path>
                <path d="M45.1428571,22.4285714 C45.1428571,24.7957143 43.2242857,26.7142857 40.8571429,26.7142857 C38.49,26.7142857 36.5714286,24.7957143 36.5714286,22.4285714 C36.5714286,20.0614286 38.49,18.1428571 40.8571429,18.1428571 C43.2242857,18.1428571 45.1428571,20.0614286 45.1428571,22.4285714" id="Fill-317" fill="#AF8066" sketch:type="MSShapeGroup"></path>
            </g>
            <g id="208---Happy-(Flat)" sketch:type="MSLayerGroup" transform="translate(10.000000, 20.000000)">
                <path d="M60,30 C60,46.5685714 46.5685714,60 30,60 C13.4314286,60 0,46.5685714 0,30 C0,13.4314286 13.4314286,0 30,0 C46.5685714,0 60,13.4314286 60,30" id="Fill-66" fill="#FBD971" sketch:type="MSShapeGroup"></path>
                <path d="M14.2857143,38.5714286 C14.2857143,47.25 21.3214286,54.2857143 30,54.2857143 C38.6785714,54.2857143 45.7142857,47.25 45.7142857,38.5714286 L14.2857143,38.5714286" id="Fill-121" fill="#C03A2B" sketch:type="MSShapeGroup"></path>
                <path d="M25.7142857,21.4285714 C25.7142857,26.1628571 21.8771429,30 17.1428571,30 C12.4085714,30 8.57142857,26.1628571 8.57142857,21.4285714 C8.57142857,16.6942857 12.4085714,12.8571429 17.1428571,12.8571429 C21.8771429,12.8571429 25.7142857,16.6942857 25.7142857,21.4285714" id="Fill-126" fill="#FFFFFF" sketch:type="MSShapeGroup"></path>
                <path d="M51.4285714,21.4285714 C51.4285714,26.1628571 47.5914286,30 42.8571429,30 C38.1228571,30 34.2857143,26.1628571 34.2857143,21.4285714 C34.2857143,16.6942857 38.1228571,12.8571429 42.8571429,12.8571429 C47.5914286,12.8571429 51.4285714,16.6942857 51.4285714,21.4285714" id="Fill-127" fill="#FFFFFF" sketch:type="MSShapeGroup"></path>
                <path d="M14.2857143,38.5714286 C14.2857143,41.5985714 18.4357143,44.18 24.2857143,45.22 L24.2857143,38.5714286 L14.2857143,38.5714286" id="Fill-137" fill="#FFFFFF" sketch:type="MSShapeGroup"></path>
                <path d="M27.1428571,38.5714286 L27.1428571,45.5914286 C28.07,45.6685714 29.0228571,45.7142857 30,45.7142857 C30.9771429,45.7142857 31.9285714,45.6685714 32.8571429,45.5914286 L32.8571429,38.5714286 L27.1428571,38.5714286" id="Fill-138" fill="#FFFFFF" sketch:type="MSShapeGroup"></path>
                <path d="M45.7142857,38.5714286 L35.7142857,38.5714286 L35.7142857,45.22 C41.5642857,44.18 45.7142857,41.5985714 45.7142857,38.5714286" id="Fill-139" fill="#FFFFFF" sketch:type="MSShapeGroup"></path>
                <path d="M24.2857143,38.5714286 L24.2857143,45.22 C25.2,45.3828571 26.1542857,45.5085714 27.1428571,45.5914286 L27.1428571,38.5714286 L24.2857143,38.5714286" id="Fill-140" fill="#ECF0F1" sketch:type="MSShapeGroup"></path>
                <path d="M32.8571429,38.5714286 L32.8571429,45.5914286 C33.8457143,45.5085714 34.8,45.3828571 35.7142857,45.22 L35.7142857,38.5714286 L32.8571429,38.5714286" id="Fill-141" fill="#ECF0F1" sketch:type="MSShapeGroup"></path>
                <path d="M24.1428571,21.7142857 C24.1428571,24.4757143 21.9042857,26.7142857 19.1428571,26.7142857 C16.3814286,26.7142857 14.1428571,24.4757143 14.1428571,21.7142857 C14.1428571,18.9528571 16.3814286,16.7142857 19.1428571,16.7142857 C21.9042857,16.7142857 24.1428571,18.9528571 24.1428571,21.7142857" id="Fill-298" fill="#AF8066" sketch:type="MSShapeGroup"></path>
                <path d="M49.8571429,21.7142857 C49.8571429,24.4757143 47.6185714,26.7142857 44.8571429,26.7142857 C42.0957143,26.7142857 39.8571429,24.4757143 39.8571429,21.7142857 C39.8571429,18.9528571 42.0957143,16.7142857 44.8571429,16.7142857 C47.6185714,16.7142857 49.8571429,18.9528571 49.8571429,21.7142857" id="Fill-299" fill="#AF8066" sketch:type="MSShapeGroup"></path>
            </g>
        </g>
    </g>
</svg>