<?xml version="1.0" encoding="UTF-8" standalone="no"?>
<svg width="873px" height="256px" viewBox="0 0 873 256" version="1.1" xmlns="http://www.w3.org/2000/svg" xmlns:xlink="http://www.w3.org/1999/xlink" xmlns:sketch="http://www.bohemiancoding.com/sketch/ns">
    <!-- Generator: Sketch 3.3.3 (12072) - http://www.bohemiancoding.com/sketch -->
    <title>1</title>
    <desc>Created with Sketch.</desc>
    <defs></defs>
    <g id="Branding" stroke="none" stroke-width="1" fill="none" fill-rule="evenodd" sketch:type="MSPage">
        <g id="Logo-Slice-Copy" sketch:type="MSArtboardGroup" transform="translate(-23.000000, -43.000000)" fill="#FFFFFF">
            <path d="M93.2307692,45 L93.2307692,206.538462 L24,165 L93.2307692,45 Z M93.2307692,285 L93.2307692,123.461538 L162.461538,165 L93.2307692,285 Z" id="Triangle-1" sketch:type="MSShapeGroup"></path>
            <path d="M427.68,115.856 C427.68,108.08 421.344,101.168 412.416,101.168 C405.792,101.168 399.456,105.488 397.728,111.824 L371.232,203.12 L341.856,113.264 C339.264,106.064 332.64,101.168 325.152,101.168 C316.8,101.168 310.176,106.064 307.872,113.264 L278.496,203.12 L252,111.824 C250.272,105.488 243.936,101.168 237.312,101.168 C228.096,101.168 222.048,108.656 222.048,115.856 C222.048,117.296 222.336,118.736 222.624,120.176 L256.608,229.04 C259.2,237.68 267.264,243.728 276.192,243.728 L276.768,243.728 C285.984,243.728 294.336,237.68 296.928,229.04 L324.864,140.624 L352.8,229.04 C355.392,237.68 363.456,243.728 372.672,243.728 L373.248,243.728 C382.176,243.728 390.528,237.68 393.12,229.04 L426.816,120.176 C427.392,118.736 427.68,117.296 427.68,115.856 L427.68,115.856 Z M468.576,48.176 C458.208,48.176 449.568,56.528 449.568,66.896 C449.568,77.552 458.208,85.904 468.576,85.904 C478.944,85.904 487.584,77.552 487.584,66.896 C487.584,56.528 478.944,48.176 468.576,48.176 L468.576,48.176 Z M484.128,228.464 L484.128,116.144 C484.128,108.08 477.216,101.168 469.152,101.168 C459.936,101.168 453.312,108.08 453.312,116.144 L453.312,228.464 C453.312,236.816 459.936,243.728 468.576,243.728 C477.216,243.728 484.128,236.816 484.128,228.464 L484.128,228.464 Z M659.808,172.304 C659.808,126.512 634.176,99.44 598.176,99.44 C580.32,99.44 564.192,107.792 553.824,121.616 L553.824,116.144 C553.824,108.08 546.912,101.168 538.848,101.168 C529.632,101.168 523.008,108.08 523.008,116.144 L523.008,281.744 C523.008,289.808 529.632,296.72 538.272,296.72 C546.912,296.72 553.824,289.808 553.824,281.744 L553.824,222.992 C565.056,237.68 580.896,245.456 598.176,245.456 C634.176,245.456 659.808,218.096 659.808,172.304 L659.808,172.304 Z M627.84,172.304 C627.84,199.088 612.576,218.096 588.96,218.096 C575.136,218.096 560.448,209.456 553.824,199.664 L553.824,145.232 C560.448,135.152 575.136,126.8 588.96,126.8 C612.576,126.8 627.84,145.808 627.84,172.304 L627.84,172.304 Z M720.576,228.464 L720.576,63.152 C720.576,55.088 713.664,48.176 705.6,48.176 C696.384,48.176 689.76,55.088 689.76,63.152 L689.76,228.464 C689.76,236.816 696.384,243.728 705.024,243.728 C713.664,243.728 720.576,236.816 720.576,228.464 L720.576,228.464 Z M894.24,172.304 C894.24,132.56 867.168,99.44 822.528,99.44 C777.888,99.44 750.816,132.56 750.816,172.304 C750.816,212.336 777.888,245.456 822.528,245.456 C867.168,245.456 894.24,212.336 894.24,172.304 L894.24,172.304 Z M861.984,172.304 C861.984,196.784 847.872,218.096 822.528,218.096 C796.896,218.096 782.784,196.784 782.784,172.304 C782.784,148.112 796.896,126.8 822.528,126.8 C847.872,126.8 861.984,148.112 861.984,172.304 L861.984,172.304 Z" id="wiplo" sketch:type="MSShapeGroup"></path>
        </g>
    </g>
</svg>